<svg xmlns="http://www.w3.org/2000/svg" xmlns:xlink="http://www.w3.org/1999/xlink" width="192" height="192" viewBox="0 0 192 192">
  <defs>
    <linearGradient id="linear-gradient" x1="0.038" y1="-0.039" x2="0.77" y2="1.171" gradientUnits="objectBoundingBox">
      <stop offset="0" stop-color="#f45c52"/>
      <stop offset="1" stop-color="#d5da73"/>
    </linearGradient>
    <clipPath id="clip-Android-chrome-192x192">
      <rect width="192" height="192"/>
    </clipPath>
  </defs>
  <g id="Android-chrome-192x192" clip-path="url(#clip-Android-chrome-192x192)">
    <g id="logo" transform="translate(15 8)">
      <path id="logo-2" data-name="logo" d="M31.64.846H23.793l14,21.588a3.931,3.931,0,1,1-3.2,2.274L19.123.846h-7.2l35.551,54.83q.048.074.089.152a3.931,3.931,0,1,1-3.174,2.245,1.973,1.973,0,0,1-.2-.254L7.256.846H6.015A4.311,4.311,0,0,0,2.4,7.487L53,86.489a4.324,4.324,0,0,1-.024,4.7l-51.7,78.981a4.311,4.311,0,0,0,3.588,6.678H44.634a4.289,4.289,0,0,0,3.622-2l30.177-47.6a4.285,4.285,0,0,1,7.245,0l30.177,47.6a4.288,4.288,0,0,0,3.622,2h6.129l-7.732-11.925a1.959,1.959,0,1,1,3.28-2.144l9.121,14.068h7.2l-29.383-45.318a1.959,1.959,0,1,1,3.28-2.143L142.048,176.7c.022.033.043.068.062.1l.025.046h7.856L125.7,139.385a1.959,1.959,0,1,1,3.28-2.143l25.679,39.6h4.594a4.311,4.311,0,0,0,3.588-6.678l-51.7-78.981a4.324,4.324,0,0,1-.024-4.7l50.594-79A4.311,4.311,0,0,0,158.1.846H118.272a4.29,4.29,0,0,0-3.66,2.056L85.7,50.2a4.285,4.285,0,0,1-7.312.012L49.251,2.89A4.29,4.29,0,0,0,45.6.846h-9.29L55.4,30.291a3.931,3.931,0,1,1-3.2,2.274Z" transform="translate(-0.556 -0.846)" fill-rule="evenodd" fill="url(#linear-gradient)"/>
    </g>
  </g>
</svg>
