<svg xmlns="http://www.w3.org/2000/svg" xmlns:xlink="http://www.w3.org/1999/xlink" width="32" height="32" viewBox="0 0 32 32">
  <defs>
    <linearGradient id="linear-gradient" x1="0.038" y1="-0.039" x2="0.77" y2="1.171" gradientUnits="objectBoundingBox">
      <stop offset="0" stop-color="#f45c52"/>
      <stop offset="1" stop-color="#d5da73"/>
    </linearGradient>
    <clipPath id="clip-favicon-32x32">
      <rect width="32" height="32"/>
    </clipPath>
  </defs>
  <g id="favicon-32x32" clip-path="url(#clip-favicon-32x32)">
    <g id="logo" transform="translate(4 3)">
      <path id="logo-2" data-name="logo" d="M5.133.846H3.978L6.039,4.035a.575.575,0,0,1,.538.265.583.583,0,0,1-.174.8.574.574,0,0,1-.8-.175.584.584,0,0,1-.039-.555L3.29.846H2.23l5.234,8.1.013.022a.575.575,0,0,1,.54.265.583.583,0,0,1-.174.8.574.574,0,0,1-.8-.175A.584.584,0,0,1,7.01,9.3a.291.291,0,0,1-.029-.037L1.543.846H1.36a.637.637,0,0,0-.532.981L8.277,13.5a.641.641,0,0,1,0,.694L.661,25.859a.637.637,0,0,0,.528.987H7.046a.631.631,0,0,0,.533-.3l4.443-7.032a.63.63,0,0,1,1.067,0l4.443,7.032a.631.631,0,0,0,.533.3h.9L17.83,25.084a.292.292,0,0,1,.084-.4.287.287,0,0,1,.4.085l1.343,2.078h1.06L16.39,20.151a.291.291,0,0,1,.084-.4.287.287,0,0,1,.4.085l4.517,6.989.009.015,0,.007h1.157l-3.576-5.534a.291.291,0,0,1,.084-.4.287.287,0,0,1,.4.085l3.781,5.851h.676a.637.637,0,0,0,.528-.987L16.839,14.192a.641.641,0,0,1,0-.694L24.284,1.827a.637.637,0,0,0-.532-.981H17.889a.631.631,0,0,0-.539.3L13.093,8.136a.63.63,0,0,1-1.077,0l-4.29-6.99a.631.631,0,0,0-.538-.3H5.82L8.632,5.2a.575.575,0,0,1,.538.265.583.583,0,0,1-.174.8.574.574,0,0,1-.8-.175.583.583,0,0,1-.039-.555Z" transform="translate(-0.556 -0.846)" fill-rule="evenodd" fill="url(#linear-gradient)"/>
    </g>
  </g>
</svg>
