<svg xmlns="http://www.w3.org/2000/svg" xmlns:xlink="http://www.w3.org/1999/xlink" width="260" height="260" viewBox="0 0 260 260">
  <defs>
    <linearGradient id="linear-gradient" x1="0.038" y1="-0.039" x2="0.77" y2="1.171" gradientUnits="objectBoundingBox">
      <stop offset="0" stop-color="#f45c52"/>
      <stop offset="1" stop-color="#d5da73"/>
    </linearGradient>
    <clipPath id="clip-safari-pinned-tab">
      <rect width="260" height="260"/>
    </clipPath>
  </defs>
  <g id="safari-pinned-tab" clip-path="url(#clip-safari-pinned-tab)">
    <g id="logo" transform="translate(19 10)">
      <path id="logo-2" data-name="logo" d="M43.082.846H32.346L51.5,30.284a5.358,5.358,0,1,1-4.372,3.1L25.958.846H16.111L64.747,75.615q.066.1.122.207a5.358,5.358,0,1,1-4.342,3.061,2.692,2.692,0,0,1-.267-.346L9.722.846h-1.7A5.878,5.878,0,0,0,3.083,9.9L72.3,117.632a5.88,5.88,0,0,1-.032,6.406L1.531,231.739a5.878,5.878,0,0,0,4.909,9.106H60.859a5.872,5.872,0,0,0,4.956-2.723L107.1,173.209a5.872,5.872,0,0,1,9.912,0L158.3,238.122a5.871,5.871,0,0,0,4.956,2.723h8.385l-10.578-16.261a2.678,2.678,0,1,1,4.488-2.923l12.479,19.184h9.847l-40.2-61.8a2.677,2.677,0,1,1,4.487-2.922l41.968,64.518c.03.045.058.092.085.139l.034.063H205l-33.229-51.083a2.677,2.677,0,1,1,4.487-2.922l35.131,54.005h6.285a5.878,5.878,0,0,0,4.909-9.106l-70.735-107.7a5.881,5.881,0,0,1-.032-6.406L221.03,9.9A5.878,5.878,0,0,0,216.088.846H161.6a5.874,5.874,0,0,0-5.007,2.8L117.044,68.141a5.872,5.872,0,0,1-10,.016L67.176,3.633a5.874,5.874,0,0,0-5-2.787H49.47L75.589,41a5.358,5.358,0,1,1-4.371,3.1Z" transform="translate(-0.556 -0.846)" fill-rule="evenodd" fill="url(#linear-gradient)"/>
    </g>
  </g>
</svg>
