<svg xmlns="http://www.w3.org/2000/svg" xmlns:xlink="http://www.w3.org/1999/xlink" width="180" height="180" viewBox="0 0 180 180"><defs><clipPath id="b"><rect width="180" height="180"/></clipPath></defs><g id="a" clip-path="url(#b)"><path d="M-4326.47,2665.317c-2.525-1.112-13.836-11.01-17.574-15.453a32.466,32.466,0,0,0-2.828-3.03c-1.212-.909-9.7-12.12-9.7-12.827,0-1.112-.4.5-4.141-5.152l-2.626-3.939-.1,3.434a31.123,31.123,0,0,1-.4,5.151c-.2.909-.5,3.535-.809,5.656-.5,3.636-.909,4.747-3.029,11.11-2.526,7.575-8.888,12.928-15.353,12.928-3.434,0-12.321-3.636-12.321-5.049a9.289,9.289,0,0,0-2.324-2.828,49.755,49.755,0,0,1-5.056-6.533,1.242,1.242,0,0,1-.134.007,2.169,2.169,0,0,1-.785-.177c-1.918-.707-22.422-24.745-23.836-27.877-.807-1.919-3.232-3.333-5.151-6.666a18,18,0,0,0-3.13-4.04c-.688-.688-1.118-1.1-1.631-1.1-.768,0-1.725.922-4.025,3.222-13.129,13.03-32.118,36.461-33.431,41.107a2.578,2.578,0,0,1-2.424,1.919c-1.414,0-1.819-.606-1.819-2.626,0-5.051,9.495-20.1,19.8-31.31,6.06-6.566,16.462-17.272,17.271-17.574a1.04,1.04,0,0,0,.7-1.056,6.583,6.583,0,0,0-1.912-3.59c-2.727-3.031-11.111-18.383-12.424-19.9a35.094,35.094,0,0,1-3.029-6.06c-1.021-2.437-1.468-3.793-1.468-4.692a1.942,1.942,0,0,1,.761-1.569.637.637,0,0,1,.445-.177c1.22,0,3.288,3.084,5.514,5.933,5.15,6.767,10.6,15.554,11.716,17.271.049.075,4.877,7.283,5.3,7.283,1.394,0,20.469-17.706,35.909-26.372a20.87,20.87,0,0,1,9.111-2.643,4.608,4.608,0,0,1,1.9.319c.69.345,1.069.707,1.069,1.158,0,1.131-2.39,2.82-8.241,6.215q-2.287,1.33-4.655,2.844c-1.063,3.3-3.43,8.462-4.621,14.867a66.809,66.809,0,0,0-.956,11.7c0,14.5,3.791,30.939,9.844,40.217a31.425,31.425,0,0,1,2.727,4.545c0,1.01,7.474,6.565,9.494,6.968a7.671,7.671,0,0,0,1.64.183c6.939,0,11.389-10.343,12.7-29.574.3-5.252,1.009-10.2,1.515-11.009a3.465,3.465,0,0,1,3.184-1.585,7.021,7.021,0,0,1,5.3,2.594,10.088,10.088,0,0,1,2.02,3.434.89.89,0,0,0,.808.909c.808,0,3.837,4.241,3.939,5.453.1,1.01,1.817,1.616,5.049,6.364,3.333,4.747,5.758,6.262,5.758,7.677a1.45,1.45,0,0,0,.706,1.313,75.106,75.106,0,0,1,6.06,5.858c7.071,7.373,7.677,7.979,11.918,10.3a8.754,8.754,0,0,0,3.616,1.344c1.722,0,2.042-2.02,2.042-5.836,0-21.512-20.207-60.476-23.012-60.476-.2,0-.313.2-.32.632a2.469,2.469,0,0,1-2.41,2.108,1.171,1.171,0,0,1-1.024-.492,2.546,2.546,0,0,1-.244-1.292,10.456,10.456,0,0,1,1.153-4.667,2.272,2.272,0,0,1,1.972-.865,8.149,8.149,0,0,1,5.2,2.482c5.656,5.454,16.16,25.351,21.412,40.905a71.477,71.477,0,0,1,4.1,21.848c0,6.165-1.44,10.507-4.307,11.583a9.118,9.118,0,0,1-3.07.4A21.8,21.8,0,0,1-4326.47,2665.317Zm-98.592-68.615-7.373,6.464,5.857,7.677c3.232,4.242,8.182,10.807,11.111,14.442.407.523,2.719,3.42,5.417,7.171a37.63,37.63,0,0,1-1.262-5.821,6.039,6.039,0,0,0-.908-2.121c-.5-.707-1.011-7.474-1.212-15.05q-.045-2.054-.045-3.983c0-8.457.654-15.109,1.993-19.786Q-4418.073,2590.623-4425.062,2596.7Z" transform="translate(4485.43 -2526.575)" fill="#040a10" stroke="#040a10" stroke-miterlimit="10" stroke-width="10"/></g></svg>