<svg width="115" height="124" viewBox="0 0 115 124" fill="none" xmlns="http://www.w3.org/2000/svg">
<path fill-rule="evenodd" clip-rule="evenodd" d="M22.2742 0.845779H16.7915L26.5715 15.8718C27.556 15.7812 28.5558 16.2294 29.1263 17.1192C29.9414 18.3905 29.5715 20.0818 28.3002 20.8969C27.0289 21.712 25.3376 21.3422 24.5225 20.0709C24.001 19.2575 23.9645 18.2721 24.3389 17.4543L13.529 0.845779H8.49992L33.3391 39.0091C33.3616 39.0436 33.3823 39.0788 33.4013 39.1146C34.3878 39.0215 35.3905 39.4697 35.9622 40.3614C36.7773 41.6327 36.4074 43.324 35.1362 44.1391C33.8649 44.9542 32.1735 44.5844 31.3584 43.3131C30.8328 42.4932 30.7999 41.4988 31.1838 40.6772C31.1344 40.623 31.0887 40.5641 31.0474 40.5006L5.23738 0.845779H4.37C1.9965 0.845779 0.562979 3.47152 1.84647 5.46806L37.1956 60.4555C37.8368 61.4529 37.8303 62.7344 37.1791 63.7254L1.0541 118.698C-0.256845 120.693 1.17411 123.346 3.56121 123.346H31.3532C32.3789 123.346 33.3335 122.822 33.8842 121.956L54.969 88.823C56.1479 86.9705 58.8521 86.9706 60.031 88.8231L81.1159 121.956C81.6665 122.822 82.6211 123.346 83.6468 123.346H87.9292L82.527 115.046C82.1152 114.413 82.2943 113.566 82.9271 113.154C83.5599 112.742 84.4069 112.921 84.8188 113.554L91.1918 123.346H96.2209L75.6911 91.8036C75.2792 91.1707 75.4583 90.3238 76.0912 89.9119C76.724 89.5 77.5709 89.6791 77.9828 90.312L99.4164 123.243C99.4317 123.266 99.4462 123.29 99.4599 123.314C99.4659 123.325 99.4716 123.335 99.4773 123.346H104.966L87.9958 97.2723C87.5839 96.6395 87.763 95.7925 88.3959 95.3807C89.0287 94.9688 89.8756 95.1479 90.2875 95.7807L108.229 123.346H111.439C113.826 123.346 115.257 120.693 113.946 118.698L77.8209 63.7253C77.1697 62.7344 77.1633 61.4529 77.8044 60.4555L113.154 5.46805C114.437 3.47152 113.004 0.845779 110.63 0.845779H82.8039C81.7607 0.845779 80.7925 1.38764 80.2469 2.27673L60.0475 35.1942C58.879 37.0985 56.1136 37.103 54.9388 35.2026L34.5794 2.26831C34.0327 1.38402 33.0672 0.845779 32.0276 0.845779H25.5368L38.8761 21.3405C39.8607 21.2499 40.8604 21.6981 41.4309 22.5879C42.246 23.8592 41.8762 25.5506 40.6049 26.3657C39.3336 27.1807 37.6422 26.8109 36.8271 25.5396C36.3056 24.7262 36.2692 23.7408 36.6436 22.9231L22.2742 0.845779Z" fill="url(#icon_color)"/>
<defs>
<linearGradient id="icon_color" x1="-2" y1="1" x2="117" y2="123" gradientUnits="userSpaceOnUse">
<stop stop-color="#F45C52"/>
<stop offset="1" stop-color="#D5DA73"/>
</linearGradient>
</defs>
</svg>
                                                    