<svg width="640" height="426" viewBox="0 0 640 426" fill="none" xmlns="http://www.w3.org/2000/svg">
<rect width="640" height="426" fill="#E5E5E5"/>
<g clip-path="url(#clip0)">
<rect width="640" height="426" fill="#04080C"/>
<rect x="171" y="181.496" width="65.7548" height="76.1863" transform="rotate(-45 171 181.496)" fill="#902923"/>
<ellipse cx="171" cy="130.5" rx="71" ry="71.5" fill="#902923"/>
<path d="M298 312.017L343.017 267L416.816 340.799C429.247 353.23 429.247 373.385 416.816 385.816V385.816C404.385 398.247 384.23 398.247 371.799 385.816L298 312.017Z" fill="#902923"/>
<circle cx="393.5" cy="362.5" r="17.5" fill="#04080C"/>
<rect x="91" y="88.4734" width="51.5811" height="72.6142" transform="rotate(-45 91 88.4734)" fill="#04080C"/>
<path d="M344.39 145.714L381.257 182.581L196.474 367.363C186.294 377.543 169.788 377.543 159.608 367.363V367.363C149.427 357.183 149.427 340.677 159.608 330.496L344.39 145.714Z" fill="#902923"/>
<path d="M276.081 46.113V46.113C315.03 7.16305 378.181 7.16303 417.131 46.113L535.794 164.776L465.269 235.301L276.081 46.113Z" fill="#902923"/>
<ellipse cx="320" cy="84.5772" rx="42.1274" ry="59.696" transform="rotate(-45 320 84.5772)" fill="#04080C"/>
<ellipse cx="415.497" cy="185.497" rx="13.735" ry="19.495" transform="rotate(-45 415.497 185.497)" fill="#04080C"/>
<ellipse cx="487.072" cy="119.5" rx="13.7374" ry="19.4966" transform="rotate(-45 487.072 119.5)" fill="#04080C"/>
</g>
<defs>
<clipPath id="clip0">
<rect width="640" height="426" fill="white"/>
</clipPath>
</defs>
</svg>
